<?xml version="1.0" encoding="UTF-8"?>
<svg id="Layer_2" data-name="Layer 2" xmlns="http://www.w3.org/2000/svg" viewBox="0 0 382.13 380.81">
  <defs>
    <style>
      .cls-1 {
        fill: #000;
        font-family: Poppins-Light, Poppins;
        font-size: 89.41px;
        font-weight: 300;
      }
    </style>
  </defs>
  <g id="Layer_1-2" data-name="Layer 1">
    <text class="cls-1" transform="translate(149.11 302.59) rotate(-142.64)"><tspan x="0" y="0">C</tspan></text>
    <text class="cls-1" transform="translate(101.61 262.03) rotate(-123.13)"><tspan x="0" y="0">l</tspan></text>
    <text class="cls-1" transform="translate(91.62 247.49) rotate(-114.19)"><tspan x="0" y="0">i</tspan></text>
    <text class="cls-1" transform="translate(81.23 234.54) rotate(-97.77)"><tspan x="0" y="0">c</tspan></text>
    <text class="cls-1" transform="translate(73.07 185.85) rotate(-76.45)"><tspan x="0" y="0">k</tspan></text>
    <text class="cls-1" transform="translate(82.1 147.83) rotate(-61.68)"><tspan x="0" y="0"> </tspan></text>
    <text class="cls-1" transform="translate(91.55 128.64) rotate(-49.21)"><tspan x="0" y="0">•</tspan></text>
    <text class="cls-1" transform="translate(110.9 106.36) rotate(-36.78)"><tspan x="0" y="0"> </tspan></text>
    <text class="cls-1" transform="translate(125.34 91.4) rotate(-18.66)"><tspan x="0" y="0">A</tspan></text>
    <text class="cls-1" transform="translate(174.94 73.54) rotate(6.42)"><tspan x="0" y="0">n</tspan></text>
    <text class="cls-1" transform="translate(225.85 78.92) rotate(29.44)"><tspan x="0" y="0">y</tspan></text>
    <text class="cls-1" transform="translate(265.83 96.86) rotate(55.88)"><tspan x="0" y="0">w</tspan></text>
    <text class="cls-1" transform="translate(302.74 152.1) rotate(84.24)"><tspan x="0" y="0">h</tspan></text>
    <text class="cls-1" transform="translate(308.99 202.87) rotate(108.67)"><tspan x="0" y="0">e</tspan></text>
    <text class="cls-1" transform="translate(291.67 250.51) rotate(127.91)"><tspan x="0" y="0">r</tspan></text>
    <text class="cls-1" transform="translate(276.52 274.33) rotate(147.04)"><tspan x="0" y="0">e</tspan></text>
    <text class="cls-1" transform="translate(232.36 298.84) rotate(164.62)"><tspan x="0" y="0"> </tspan></text>
    <text class="cls-1" transform="translate(212.26 303.82) rotate(177.12)"><tspan x="0" y="0">•</tspan></text>
  </g>
</svg>